<svg width="43" height="43" viewBox="0 0 43 43" fill="none" xmlns="http://www.w3.org/2000/svg">
<path d="M30.1 8.6C30.1 13.3496 26.2497 17.2 21.5 17.2C16.7504 17.2 12.9 13.3496 12.9 8.6C12.9 3.85035 16.7504 0 21.5 0C26.2497 0 30.1 3.85035 30.1 8.6Z" fill="#1D4A7F"/>
<path d="M27.95 25.8C27.95 29.3622 25.0622 32.25 21.5 32.25C17.9378 32.25 15.05 29.3622 15.05 25.8C15.05 22.2378 17.9378 19.35 21.5 19.35C25.0622 19.35 27.95 22.2378 27.95 25.8Z" fill="#1D4A7F"/>
<path d="M43 19.35C43 22.9122 40.1122 25.8 36.55 25.8C32.9878 25.8 30.1 22.9122 30.1 19.35C30.1 15.7878 32.9878 12.9 36.55 12.9C40.1122 12.9 43 15.7878 43 19.35Z" fill="#1D4A7F"/>
<path d="M12.9 19.35C12.9 22.9122 10.0122 25.8 6.45 25.8C2.88776 25.8 0 22.9122 0 19.35C0 15.7878 2.88776 12.9 6.45 12.9C10.0122 12.9 12.9 15.7878 12.9 19.35Z" fill="#1D4A7F"/>
<path d="M10.75 32.25C10.75 34.6248 8.82483 36.55 6.45 36.55C4.07518 36.55 2.15 34.6248 2.15 32.25C2.15 29.8752 4.07518 27.95 6.45 27.95C8.82483 27.95 10.75 29.8752 10.75 32.25Z" fill="#1D4A7F"/>
<path d="M25.8 38.7C25.8 41.0748 23.8748 43 21.5 43C19.1252 43 17.2 41.0748 17.2 38.7C17.2 36.3252 19.1252 34.4 21.5 34.4C23.8748 34.4 25.8 36.3252 25.8 38.7Z" fill="#1D4A7F"/>
<path d="M40.85 32.25C40.85 34.6248 38.9248 36.55 36.55 36.55C34.1752 36.55 32.25 34.6248 32.25 32.25C32.25 29.8752 34.1752 27.95 36.55 27.95C38.9248 27.95 40.85 29.8752 40.85 32.25Z" fill="#1D4A7F"/>
</svg>
